<?xml version="1.0" encoding="UTF-8"?>
<svg width="23px" height="17px" viewBox="0 0 23 17" version="1.1" xmlns="http://www.w3.org/2000/svg" xmlns:xlink="http://www.w3.org/1999/xlink">
    <!-- Generator: Sketch 41.2 (35397) - http://www.bohemiancoding.com/sketch -->
    <title>back</title>
    <desc>Created with Sketch.</desc>
    <defs></defs>
    <g id="Welcome" stroke="none" stroke-width="1" fill="none" fill-rule="evenodd">
        <g id="View-Sura-" transform="translate(-441.000000, -798.000000)" fill="#F2F2F2">
            <g id="player" transform="translate(441.000000, 781.000000)">
                <g id="back" transform="translate(11.500000, 25.411765) rotate(180.000000) translate(-11.500000, -25.411765) translate(0.000000, 16.911765)">
                    <path d="M22.8285088,8.11888451 L11.9337719,0.281725251 C11.8102982,0.192629125 11.6501053,0.181904591 11.5157368,0.252851506 C11.3821754,0.32338594 11.2982456,0.464867288 11.2982456,0.618723099 L11.2982456,7.95141679 L0.635526316,0.286262554 C0.51245614,0.198403874 0.351859649,0.186854376 0.217491228,0.257801291 C0.0839298246,0.328748207 0,0.470229555 0,0.624085366 L0,16.2880918 C0,16.4419476 0.0839298246,16.583429 0.217491228,16.6543759 C0.276403509,16.6848996 0.340157895,16.7001614 0.403508772,16.7001614 C0.485017544,16.7001614 0.566122807,16.6745875 0.635526316,16.6250897 L11.2982456,8.96034792 L11.2982456,16.2930416 C11.2982456,16.4468974 11.3821754,16.5883788 11.5157368,16.6593257 C11.5746491,16.6902618 11.6384035,16.7055237 11.7017544,16.7055237 C11.7832632,16.7055237 11.8647719,16.6799498 11.9337719,16.6300395 L22.8285088,8.7928802 C22.9362456,8.71615854 23,8.58993902 23,8.45588235 C23,8.32182568 22.9362456,8.19560617 22.8285088,8.11888451 Z" id="Shape"></path>
                </g>
            </g>
        </g>
    </g>
</svg>