<?xml version="1.0" encoding="UTF-8"?>
<svg width="34px" height="35px" viewBox="0 0 34 35" version="1.1" xmlns="http://www.w3.org/2000/svg" xmlns:xlink="http://www.w3.org/1999/xlink">
    <!-- Generator: Sketch 41.2 (35397) - http://www.bohemiancoding.com/sketch -->
    <title>Shape</title>
    <desc>Created with Sketch.</desc>
    <defs></defs>
    <g id="Welcome" stroke="none" stroke-width="1" fill="none" fill-rule="evenodd">
        <g id="Home-Screen" transform="translate(-965.000000, -66.000000)" fill="#4990E2">
            <g id="search" transform="translate(965.000000, 66.000000)">
                <path d="M33.4815,31.6379212 L25.2498571,23.0398846 C27.3663571,20.5130947 28.526,17.333876 28.526,14.0241715 C28.526,6.2913653 22.2615,0 14.5617143,0 C6.86192857,0 0.597428571,6.2913653 0.597428571,14.0241715 C0.597428571,21.7569778 6.86192857,28.0483431 14.5617143,28.0483431 C17.4523214,28.0483431 20.2069286,27.172747 22.5620357,25.5105778 L30.8562143,34.1738573 C31.2028929,34.535437 31.6691786,34.7348242 32.1688571,34.7348242 C32.6418214,34.7348242 33.0905,34.5537294 33.4311071,34.2244663 C34.1548214,33.5250869 34.1778929,32.3653489 33.4815,31.6379212 Z M14.5617143,3.65847953 C20.2530714,3.65847953 24.8831429,8.30840702 24.8831429,14.0241715 C24.8831429,19.7399361 20.2530714,24.3898635 14.5617143,24.3898635 C8.87035714,24.3898635 4.24028571,19.7399361 4.24028571,14.0241715 C4.24028571,8.30840702 8.87035714,3.65847953 14.5617143,3.65847953 Z" id="Shape"></path>
            </g>
        </g>
    </g>
</svg>